<?xml version="1.0" encoding="UTF-8" standalone="no"?><svg xmlns="http://www.w3.org/2000/svg" xmlns:xlink="http://www.w3.org/1999/xlink" contentStyleType="text/css" height="654px" preserveAspectRatio="none" style="width:1361px;height:654px;background:#FFFFFF;" version="1.1" viewBox="0 0 1361 654" width="1361px" zoomAndPan="magnify"><defs/><g><rect fill="none" height="26.4883" id="_title" style="stroke:none;stroke-width:1.0;" width="225" x="566.5" y="15"/><text fill="#000000" font-family="sans-serif" font-size="14" font-weight="bold" lengthAdjust="spacing" textLength="215" x="571.5" y="33.5352">業務フロー図 - ユーザー登録業務</text><ellipse cx="257" cy="85.9844" fill="#222222" rx="10" ry="10" style="stroke:#222222;stroke-width:1.0;"/><path d="M20,112.7402 L20,153.3613 A0,0 0 0 0 20,153.3613 L197,153.3613 A0,0 0 0 0 197,153.3613 L197,137.0508 L217,133.0508 L197,129.0508 L197,122.7402 L187,112.7402 L20,112.7402 A0,0 0 0 0 20,112.7402 " fill="#FEFFDD" style="stroke:#181818;stroke-width:0.5;"/><path d="M187,112.7402 L187,122.7402 L197,122.7402 L187,112.7402 " fill="#FEFFDD" style="stroke:#181818;stroke-width:0.5;"/><text fill="#000000" font-family="sans-serif" font-size="13" lengthAdjust="spacing" textLength="117" x="26" y="130.3086">【ビジネスルール】</text><text fill="#000000" font-family="sans-serif" font-size="13" lengthAdjust="spacing" textLength="156" x="26" y="145.6191">Webからの申し込みも可能</text><rect fill="#F1F1F1" height="34.1328" rx="12.5" ry="12.5" style="stroke:#181818;stroke-width:0.5;" width="80" x="217" y="115.9844"/><text fill="#000000" font-family="sans-serif" font-size="12" lengthAdjust="spacing" textLength="60" x="227" y="137.5859">申込書提出</text><rect fill="#F1F1F1" height="34.1328" rx="12.5" ry="12.5" style="stroke:#181818;stroke-width:0.5;" width="80" x="112.5" y="271.4941"/><text fill="#000000" font-family="sans-serif" font-size="12" lengthAdjust="spacing" textLength="60" x="122.5" y="293.0957">申込書返却</text><ellipse cx="152.5" cy="336.627" fill="none" rx="11" ry="11" style="stroke:#222222;stroke-width:1.0;"/><ellipse cx="152.5" cy="336.627" fill="#222222" rx="6" ry="6" style="stroke:#111111;stroke-width:1.0;"/><line style="stroke:#181818;stroke-width:1.5;" x1="353" x2="427" y1="477.8926" y2="477.8926"/><rect fill="#F1F1F1" height="34.1328" rx="12.5" ry="12.5" style="stroke:#181818;stroke-width:0.5;" width="92" x="307" y="499.3926"/><text fill="#000000" font-family="sans-serif" font-size="12" lengthAdjust="spacing" textLength="72" x="317" y="520.9941">登録成功通知</text><ellipse cx="353" cy="579.5254" fill="none" rx="11" ry="11" style="stroke:#222222;stroke-width:1.0;"/><ellipse cx="353" cy="579.5254" fill="#222222" rx="6" ry="6" style="stroke:#111111;stroke-width:1.0;"/><line style="stroke:#000000;stroke-width:1.5;" x1="15" x2="15" y1="49.7852" y2="642.5254"/><rect fill="#F1F1F1" height="34.1328" rx="12.5" ry="12.5" style="stroke:#181818;stroke-width:0.5;" width="80" x="447.5" y="173.3613"/><text fill="#000000" font-family="sans-serif" font-size="12" lengthAdjust="spacing" textLength="60" x="457.5" y="194.9629">申込書受領</text><polygon fill="#F1F1F1" points="471,227.4941,504,227.4941,516,239.4941,504,251.4941,471,251.4941,459,239.4941,471,227.4941" style="stroke:#181818;stroke-width:0.5;"/><text fill="#000000" font-family="sans-serif" font-size="11" lengthAdjust="spacing" textLength="33" x="471" y="243.6514">不備が</text><text fill="#000000" font-family="sans-serif" font-size="11" lengthAdjust="spacing" textLength="22" x="437" y="237.1738">ある</text><text fill="#000000" font-family="sans-serif" font-size="11" lengthAdjust="spacing" textLength="22" x="516" y="237.1738">ない</text><rect fill="#F1F1F1" height="34.1328" rx="12.5" ry="12.5" style="stroke:#181818;stroke-width:0.5;" width="114" x="535" y="271.4941"/><text fill="#000000" font-family="sans-serif" font-size="12" lengthAdjust="spacing" textLength="94" x="545" y="293.0957">CSVアップロード</text><rect fill="#F1F1F1" height="34.1328" rx="12.5" ry="12.5" style="stroke:#181818;stroke-width:0.5;" width="92" x="453" y="477.8926"/><text fill="#000000" font-family="sans-serif" font-size="12" lengthAdjust="spacing" textLength="72" x="463" y="499.4941">登録失敗通知</text><ellipse cx="499" cy="558.0254" fill="none" rx="11" ry="11" style="stroke:#222222;stroke-width:1.0;"/><ellipse cx="499" cy="558.0254" fill="#222222" rx="6" ry="6" style="stroke:#111111;stroke-width:1.0;"/><rect fill="#F1F1F1" height="34.1328" rx="12.5" ry="12.5" style="stroke:#181818;stroke-width:0.5;" width="92" x="659" y="499.3926"/><text fill="#000000" font-family="sans-serif" font-size="12" lengthAdjust="spacing" textLength="72" x="669" y="520.9941">登録成功通知</text><ellipse cx="705" cy="579.5254" fill="none" rx="11" ry="11" style="stroke:#222222;stroke-width:1.0;"/><ellipse cx="705" cy="579.5254" fill="#222222" rx="6" ry="6" style="stroke:#111111;stroke-width:1.0;"/><line style="stroke:#000000;stroke-width:1.5;" x1="432" x2="432" y1="49.7852" y2="642.5254"/><rect fill="#F1F1F1" height="34.1328" rx="12.5" ry="12.5" style="stroke:#181818;stroke-width:0.5;" width="104" x="773" y="325.627"/><text fill="#000000" font-family="sans-serif" font-size="12" lengthAdjust="spacing" textLength="84" x="783" y="347.2285">オンライン受付</text><rect fill="#F1F1F1" height="34.1328" rx="12.5" ry="12.5" style="stroke:#181818;stroke-width:0.5;" width="128" x="761" y="379.7598"/><text fill="#000000" font-family="sans-serif" font-size="12" lengthAdjust="spacing" textLength="108" x="771" y="401.3613">ディレード登録処理</text><path d="M899,502.2432 L899,558.1748 L1336,558.1748 L1336,512.2432 L1326,502.2432 L899,502.2432 " fill="#FEFFDD" style="stroke:#181818;stroke-width:0.5;"/><path d="M1326,502.2432 L1326,512.2432 L1336,512.2432 L1326,502.2432 " fill="#FEFFDD" style="stroke:#181818;stroke-width:0.5;"/><text fill="#000000" font-family="sans-serif" font-size="13" lengthAdjust="spacing" textLength="117" x="905" y="519.8115">【ビジネスルール】</text><text fill="#000000" font-family="sans-serif" font-size="13" lengthAdjust="spacing" textLength="299" x="905" y="535.1221">正しい形式で入力されていない場合がエラーになる</text><text fill="#000000" font-family="sans-serif" font-size="13" lengthAdjust="spacing" textLength="416" x="905" y="550.4326">複数の企業を同時に登録する場合は、エラーになる行以外は登録される</text><polygon fill="#F1F1F1" points="825,433.8926,825,433.8926,837,445.8926,825,457.8926,825,457.8926,813,445.8926,825,433.8926" style="stroke:#181818;stroke-width:0.5;"/><text fill="#000000" font-family="sans-serif" font-size="11" lengthAdjust="spacing" textLength="44" x="769" y="443.5723">登録失敗</text><text fill="#000000" font-family="sans-serif" font-size="11" lengthAdjust="spacing" textLength="44" x="837" y="443.5723">登録成功</text><line style="stroke:#000000;stroke-width:1.5;" x1="755" x2="755" y1="49.7852" y2="642.5254"/><line style="stroke:#000000;stroke-width:1.5;" x1="1341" x2="1341" y1="49.7852" y2="642.5254"/><line style="stroke:#181818;stroke-width:1.0;" x1="257" x2="257" y1="95.9844" y2="115.9844"/><polygon fill="#181818" points="253,105.9844,257,115.9844,261,105.9844,257,109.9844" style="stroke:#181818;stroke-width:1.0;"/><line style="stroke:#181818;stroke-width:1.0;" x1="152.5" x2="152.5" y1="305.627" y2="325.627"/><polygon fill="#181818" points="148.5,315.627,152.5,325.627,156.5,315.627,152.5,319.627" style="stroke:#181818;stroke-width:1.0;"/><line style="stroke:#181818;stroke-width:1.0;" x1="353" x2="353" y1="533.5254" y2="568.5254"/><polygon fill="#181818" points="349,558.5254,353,568.5254,357,558.5254,353,562.5254" style="stroke:#181818;stroke-width:1.0;"/><line style="stroke:#181818;stroke-width:1.0;" x1="353" x2="353" y1="479.3926" y2="499.3926"/><polygon fill="#181818" points="349,489.3926,353,499.3926,357,489.3926,353,493.3926" style="stroke:#181818;stroke-width:1.0;"/><line style="stroke:#181818;stroke-width:1.0;" x1="499" x2="499" y1="512.0254" y2="547.0254"/><polygon fill="#181818" points="495,537.0254,499,547.0254,503,537.0254,499,541.0254" style="stroke:#181818;stroke-width:1.0;"/><line style="stroke:#181818;stroke-width:1.0;" x1="705" x2="705" y1="533.5254" y2="568.5254"/><polygon fill="#181818" points="701,558.5254,705,568.5254,709,558.5254,705,562.5254" style="stroke:#181818;stroke-width:1.0;"/><line style="stroke:#181818;stroke-width:1.0;" x1="516" x2="592" y1="239.4941" y2="239.4941"/><line style="stroke:#181818;stroke-width:1.0;" x1="592" x2="592" y1="239.4941" y2="271.4941"/><polygon fill="#181818" points="588,261.4941,592,271.4941,596,261.4941,592,265.4941" style="stroke:#181818;stroke-width:1.0;"/><line style="stroke:#181818;stroke-width:1.0;" x1="487.5" x2="487.5" y1="207.4941" y2="227.4941"/><polygon fill="#181818" points="483.5,217.4941,487.5,227.4941,491.5,217.4941,487.5,221.4941" style="stroke:#181818;stroke-width:1.0;"/><line style="stroke:#181818;stroke-width:1.0;" x1="825" x2="825" y1="359.7598" y2="379.7598"/><polygon fill="#181818" points="821,369.7598,825,379.7598,829,369.7598,825,373.7598" style="stroke:#181818;stroke-width:1.0;"/><line style="stroke:#181818;stroke-width:1.0;" x1="825" x2="825" y1="413.8926" y2="433.8926"/><polygon fill="#181818" points="821,423.8926,825,433.8926,829,423.8926,825,427.8926" style="stroke:#181818;stroke-width:1.0;"/><line style="stroke:#181818;stroke-width:1.0;" x1="257" x2="257" y1="150.1172" y2="158.3613"/><line style="stroke:#181818;stroke-width:1.0;" x1="257" x2="487.5" y1="158.3613" y2="158.3613"/><line style="stroke:#181818;stroke-width:1.0;" x1="487.5" x2="487.5" y1="158.3613" y2="173.3613"/><polygon fill="#181818" points="483.5,163.3613,487.5,173.3613,491.5,163.3613,487.5,167.3613" style="stroke:#181818;stroke-width:1.0;"/><line style="stroke:#181818;stroke-width:1.0;" x1="592" x2="592" y1="305.627" y2="310.627"/><line style="stroke:#181818;stroke-width:1.0;" x1="592" x2="825" y1="310.627" y2="310.627"/><line style="stroke:#181818;stroke-width:1.0;" x1="825" x2="825" y1="310.627" y2="325.627"/><polygon fill="#181818" points="821,315.627,825,325.627,829,315.627,825,319.627" style="stroke:#181818;stroke-width:1.0;"/><line style="stroke:#181818;stroke-width:1.0;" x1="427" x2="427" y1="479.3926" y2="483.3926"/><line style="stroke:#181818;stroke-width:1.0;" x1="427" x2="705" y1="483.3926" y2="483.3926"/><line style="stroke:#181818;stroke-width:1.0;" x1="705" x2="705" y1="483.3926" y2="499.3926"/><polygon fill="#181818" points="701,489.3926,705,499.3926,709,489.3926,705,493.3926" style="stroke:#181818;stroke-width:1.0;"/><line style="stroke:#181818;stroke-width:1.0;" x1="813" x2="499" y1="445.8926" y2="445.8926"/><line style="stroke:#181818;stroke-width:1.0;" x1="499" x2="499" y1="445.8926" y2="477.8926"/><polygon fill="#181818" points="495,467.8926,499,477.8926,503,467.8926,499,471.8926" style="stroke:#181818;stroke-width:1.0;"/><line style="stroke:#181818;stroke-width:1.0;" x1="837" x2="849" y1="445.8926" y2="445.8926"/><line style="stroke:#181818;stroke-width:1.0;" x1="849" x2="849" y1="445.8926" y2="463.8926"/><line style="stroke:#181818;stroke-width:1.0;" x1="849" x2="413" y1="463.8926" y2="463.8926"/><line style="stroke:#181818;stroke-width:1.0;" x1="413" x2="413" y1="463.8926" y2="477.8926"/><polygon fill="#181818" points="409,467.8926,413,477.8926,417,467.8926,413,471.8926" style="stroke:#181818;stroke-width:1.0;"/><line style="stroke:#181818;stroke-width:1.0;" x1="459" x2="152.5" y1="239.4941" y2="239.4941"/><line style="stroke:#181818;stroke-width:1.0;" x1="152.5" x2="152.5" y1="239.4941" y2="271.4941"/><polygon fill="#181818" points="148.5,261.4941,152.5,271.4941,156.5,261.4941,152.5,265.4941" style="stroke:#181818;stroke-width:1.0;"/><text fill="#000000" font-family="sans-serif" font-size="18" lengthAdjust="spacing" textLength="126" x="160.5" y="67.1875">バイヤー管理者</text><text fill="#000000" font-family="sans-serif" font-size="18" lengthAdjust="spacing" textLength="126" x="530.5" y="67.1875">サービス提供者</text><text fill="#000000" font-family="sans-serif" font-size="18" lengthAdjust="spacing" textLength="90" x="1003" y="67.1875">本システム</text><!--MD5=[5fae168a21cc7cbbc9701b07bc8743f9]
@startuml
title 業務フロー図 - ユーザー登録業務

|バイヤー管理者|
start
:申込書提出;
note
【ビジネスルール】
Webからの申し込みも可能
end note

|サービス提供者|
:申込書受領;

if (不備が) then (ある)

  |バイヤー管理者|
  :申込書返却;
  stop
else (ない)
  |サービス提供者|
  :CSVアップロード;
  |本システム|
  :オンライン受付;
  :ディレード登録処理;
  if () then (登録失敗)
    note right
    【ビジネスルール】
    正しい形式で入力されていない場合がエラーになる
    複数の企業を同時に登録する場合は、エラーになる行以外は登録される
    end note

    |サービス提供者|
    :登録失敗通知;
    stop
  else (登録成功)
    split
      |バイヤー管理者|
      :登録成功通知;
      stop
    split again
      |サービス提供者|
      :登録成功通知;
      stop
@enduml

PlantUML version 1.2022.7(Tue Aug 23 02:01:30 JST 2022)
(GPL source distribution)
Java Runtime: Java(TM) SE Runtime Environment
JVM: Java HotSpot(TM) 64-Bit Server VM
Default Encoding: UTF-8
Language: ja
Country: JP
--></g></svg>